# xmcd
#
# Track frame offsets: 
#        150
#        15089
#        32325
#        44866
#        47859
#        62063
#        75599
#        91686
#        104188
#        120342
#        135150
#        149241
#        163893
#        169911
#        185209
#
# Disc length: 2725 seconds
#
# Revision: 2
# Processed by: cddbd v1.5.2PL0 Copyright (c) Steve Scherf et al.
# Submitted via: ExactAudioCopyFreeDBPlugin 1.0
#
DISCID=ce0aa30f
DTITLE=CALEXICO - Carried To Dust
DYEAR=2008
DGENRE=Blues
TTITLE0=Victor Jara's Hands
TTITLE1=Two silver trees
TTITLE2=The news about William
TTITLE3=Sarabande In pencil form
TTITLE4=Writer's minor holiday
TTITLE5=Man made lake
TTITLE6=Inspiración
TTITLE7=House of Valparaiso
TTITLE8=Slowness
TTITLE9=Bend yo the road
TTITLE10=El Gatillo (Trigger Revisited)
TTITLE11=Fractured air (Tornado Watch)
TTITLE12=Falling from sleeves
TTITLE13=Red blooms
TTITLE14=Contention city
EXTD=
EXTT0=
EXTT1=
EXTT2=
EXTT3=
EXTT4=
EXTT5=
EXTT6=
EXTT7=
EXTT8=
EXTT9=
EXTT10=
EXTT11=
EXTT12=
EXTT13=
EXTT14=
PLAYORDER=
